<svg id="Слой_1" data-name="Слой 1" xmlns="http://www.w3.org/2000/svg" viewBox="0 0 332.12 384.96"><defs><style>.cls-1{fill:#fff;}</style></defs><path d="M163.23,604.22c-1.37-1.54-2.47-2.8-3.59-4.05-2.61-2.93-5.27-2.95-8.16-.23-.84.79-2.49,2-2.87,1.73a6.75,6.75,0,0,1-2.38-3.33c-1.12-3.66-2.12-4.32-4.73-1.6-4,4.19-8.55,2.92-13.15,2.24-2.29-.33-1.92-2.17-1.41-3.42,1.49-3.71,3.16-7.35,5-10.92,1.14-2.25,2.66-4.31,4-6.47a7.34,7.34,0,0,1,6.09-3.88c7-.51,11.44-4.5,13-11.09,3.07-13.24,6.08-26.52,8.42-39.9,2.29-13.19,3.84-26.52,5.49-39.81a221.91,221.91,0,0,0,1.58-43.95,31.24,31.24,0,0,0-.67-4.06c-1.24-6-2-6.58-8.06-7.12a17.74,17.74,0,0,1-3.95-1.3c.54-1.27,1.14-2.52,1.59-3.82s1.12-2.5.86-3.55c-1.21-4.86-2-10-4.26-14.39-3.32-6.46-6.3-12.8-6.47-20.23,0-1.15-1.28-2.43-2.25-3.36-.8-.77-2.05-1-3.05-1.65-2.95-1.77-3.14-4.76,0-6,4-1.61,4.55-4.55,4.83-8.27.54-6.91,1.58-13.78,2.32-20.68a5.72,5.72,0,0,0-.46-3.24c-2.56-4.46-5.33-8.8-7.95-13.24a2.88,2.88,0,0,1-.2-2.12c3-9.42.46-18.19-2.39-27.16-2.41-7.59-3.78-15.51-5.41-23.33-.35-1.72-.57-3.86,2.19-4.52.51-.12.9-1.71,1-2.65.19-3.13-.21-6.32,2.23-9,.48-.51,0-1.95-.11-3-.56-8.49-1.87-17-1.46-25.48.42-8.85,8.09-13.17,16.64-10.73,5.55,1.58,10.05,4.81,14.14,8.68a7.92,7.92,0,0,0,6.2,2.34c14.05-.53,28.1-.79,42.13-1.45,2.72-.13,5.49-1.37,8-2.53,5.36-2.44,10.47-5.43,15.9-7.7,4.53-1.89,7.3-.32,7.8,4.54.79,7.55.86,15.17,1.44,22.75.53,6.85,1.13,13.72,2.12,20.52.6,4.09,1.77,8-.72,11.9a6.15,6.15,0,0,0-.65,3.07c-.27,11.65-.8,23.32-.56,35a18.83,18.83,0,0,0,4.4,11.84c9.42,11.24,20.47,20.73,31.49,30.27,16.63,14.39,28.72,32.28,39.46,51.2,13.77,24.24,24.88,49.79,35.86,75.34,6.77,15.75,11.86,32.21,18.1,48.19a112,112,0,0,0,9.09,18c6.36,10.3,16.42,13.45,27.71,9.16a65.05,65.05,0,0,0,10-4.77c6.82-4,9.18-10.4,6.7-17.91-1.28-3.89-2.92-7.68-4.53-11.46-1.76-4.09-2.65-8.12.62-11.86s7.77-4,12.23-2.89a20.6,20.6,0,0,1,15.47,20.84c-.07,2,.68,4.08.78,6.14.11,2.29.4,4.76-.28,6.87A153.25,153.25,0,0,1,452.63,561,112.45,112.45,0,0,1,447,572.2a17.68,17.68,0,0,1-4.4,5.23c-10.68,8-22.14,14.07-36,13.71-3.77-.09-7.51-1-11.28-1.39a10,10,0,0,0-4.65.23c-8.73,3.68-18,2.88-27.14,3.78-5.23.51-10.47,1-15.65,1.9-5,.81-8.88-.67-10.32-4.7-6.43,5.39-14.23,4.55-21.65,4.46s-15.08-1.36-22.62-2a49.46,49.46,0,0,0-7.2.07c-4.29.26-8.59,1-12.87.92a18.52,18.52,0,0,0-10.29,2.42,15.23,15.23,0,0,1-3.14,1.47c-2.53.85-3.86-.22-3.63-2.91.11-1.35.42-2.68.78-4.85-1.91,1.61-3.14,2.84-4.56,3.79a49.29,49.29,0,0,1-4.85,2.47c-.21-1.58-.25-2.42-.43-3.22-.38-1.74.46-4.21-2.11-4.76-2.89-.61-5.9-.31-7.74,2.29-1.1,1.54-2.28,3-3.85,1.88-.95-.7-1.44-3.1-1-4.4a30.38,30.38,0,0,1,12.19-16.87c2.87-1.88,7-2.43,10.54-2.59,7.79-.34,15.61,0,23.42,0h3.71c-1.35-1.19-2.1-1.87-2.87-2.52-14.34-12.25-26.11-26.39-32.95-44.23-3.62-9.43-3.6-19.44-4.95-29.24A90.88,90.88,0,0,0,238,478.74a6.15,6.15,0,0,0-3.73-3.67c-1.05-.22-3.31,1.58-3.8,2.93a146.68,146.68,0,0,0-5.92,18.9c-3.15,14.61-5.82,29.33-8.58,44-1.5,8-2.63,16-4.27,24-.37,1.8-2.14,3.33-3.34,4.93-.54.72-1.58,1.19-1.87,2-3.8,10.2-11.94,16.35-20.5,22.11a23.6,23.6,0,0,1-11.86,3.78c-2.64.2-5.14,2.49-7.64,3.94A32,32,0,0,0,163.23,604.22ZM183.31,588c2.67-2,5.41-4.13,8.14-6.23a.62.62,0,0,0,.17-.27,23.77,23.77,0,0,1,4.72-7c2-2.28,2.62-5.51,5.26-8,2.79-2.62,4.42-6.94,5.52-10.81,2.12-7.44,3.53-15.09,5.2-22.66,1.54-7,4-13.77,3.2-21.1a3.92,3.92,0,0,1,.36-1.49,57.38,57.38,0,0,0,2.14-6.75c1.15-6.11,1.8-12.31,3.12-18.37,1-4.54,2.81-8.89,4.12-13.37.69-2.33,1.06-4.74,1.65-7.1.23-.9.82-1.71,1-2.61a15.2,15.2,0,0,0,.65-4.68c-.09-.86-1.32-1.61-2.34-2.74-.49,2.49-.72,4.16-1.16,5.77-.33,1.18-1.25,2.27-1.33,3.44a39.45,39.45,0,0,0,.35,5.62,8.73,8.73,0,0,1-3-4.07c-.62-2-.65-4.14-1.17-6.16-.59-2.24-1.29-5-4.23-4.67-2.65.26-2.61,2.87-2.79,5a10.13,10.13,0,0,1-.41,1.33c-.79-3.13-1.33-5.65-2.11-8.1-.27-.83-1.14-1.48-1.74-2.2-.46.84-1.39,1.75-1.29,2.53.74,6.22,1.67,12.4,2.63,19.23-2.11,4.06-.39,9.63-1.93,15.3-.31-1.93-.66-3.33-.74-4.74-.28-5.27-.49-10.55-.69-15.83-.08-2.21-.57-3.91-3.25-4.2-.63-.07-1.15-1.15-1.72-1.76a15.43,15.43,0,0,1,2-1.36,6,6,0,0,1,1.92,0c-.2-2.36-.42-4.53-.54-6.71-.06-1.13-.37-2.77.22-3.33,3.67-3.46,2.1-7.17.54-10.65a8.41,8.41,0,0,1,0-7.86c1.46-2.72,3.32-5.22,5-7.81-.55,5-5.18,8.56-4.64,14.18,5.37-1.44,5.41-7.9,10.67-9.08-1.23,2.59-2.93,4.65-3,6.8s1.42,4.22,2.43,6.85c1.29-1.37,1.85-2,2.43-2.57,2.6-2.67,4.69-2.2,6,1.2a9.86,9.86,0,0,0,2,2.37c.26-1,.85-2.13.73-3.12-.51-4-.09-4.69,3.55-5l1.55,4.17,1.07-.28v-8.2c3.43,3.44,1.65,7.4,2.95,10.83.91-1.76,1.82-3.61,1.72-5.4-.2-3.54-1-7-1.47-10.58-.35-2.75-1-5.58.7-8.72a13.21,13.21,0,0,0,1,1.62c.81.88,1.65,1.72,2.48,2.58.71-.94,1.5-1.83,2.11-2.83a28.17,28.17,0,0,0,1.36-2.89l.81.06c.23,1.17.93,2.49.6,3.47a51.81,51.81,0,0,1-3.78,8.83c-1.09,1.92-1.81,3,.91,4,1.2.41,2.14,1.58,3.79,2.86.79-2.9,1.56-5.76,2.17-8,.39,1.55,1,3.71,1.62,6.34l2.9-3.18.88,8.36.81.31c.55-1,1.46-1.91,1.59-2.94.56-4.69.8-9.42,1.38-14.11a28.32,28.32,0,0,1,1.61-5.05c.19,4.93-.16,9.75.7,14.35s1.95,9.14,5.16,12.68l.88-.31c-.3-3.59-.61-7.18-.91-10.76l.81-.07a24.54,24.54,0,0,0,1.77,4.87c.55.92,1.93,1.34,2.93,2,.51-1,1.56-2.06,1.43-3a42.71,42.71,0,0,0-2-9.12,6.44,6.44,0,0,1,1.57-7.38c-.18,1.75-.36,3.49-.56,5.45,2.63.09,2.87,1.84,3.06,3.86.39,4.07.8,8.16,1.58,12.17.26,1.36,1.65,2.51,2.53,3.75l1.05-.45v-9.11c2.52,4.81,5.16,9.93,7.91,15a3.19,3.19,0,0,0,2,1.46c.63.08,1.85-.59,1.95-1.09a3.53,3.53,0,0,0-.62-2.75c-4.32-4.24-4.16-9.39-3.24-14.75.06,1.21.12,2.43.18,3.68l3.57-.33c-1.53,7.27,3.79,11.85,5.67,18.16l3.8-4.08c1.43,1.88,2.42,4.53,4.13,5.12,2.49.86,3.48,2.39,4.46,4.39s2,4,3.07,5.89c2.87,5.17,3,5.18,7.45,1.72.09-.07.35.08.85.22-.56,1.24-1.59,2.49-1.52,3.66.1,1.58.64,3.64,1.75,4.51,1.45,1.12,3.11.26,4-1.68a50.71,50.71,0,0,1,2.52-4.48l1.37.19c-.55,10,4.65,19.46,1.77,29.65-2.18-8.55-4.6-16.81-12.78-21.88.88,7.65.88,7.65-5.21,10.86,1.09-7.31.32-14-4.62-19.59-2.27-2.58-4.44-5.25-6.67-7.87,0,0-.19.06-.7.23a21.21,21.21,0,0,1,.35,2.76c0,1.13.23,2.54-.33,3.34-1.78,2.51-3.89,4.79-5.88,7.18-.7-2.36,1.83-6.52-3.43-6.57-.2,0-.53-.45-.55-.71-.31-3.88-2.43-6-6.24-6.55-.53-.08-.95-.82-1.48-1.16-2.18-1.4-4.44-2.7-6.58-4.18-1.61-1.11-3.06-2.43-4.7-3.75-2.08,1.94-2.58,1.93-5.08-.56-1.18-1.18-2-.86-2.5.63-.23.67-.4,1.36-.62,2.11-3.21-2.38-3.95-2.22-5.8,1.21a15.39,15.39,0,0,0-1.11,2.61c-3.08,9.67-2.71,19.57-1.85,29.48.05.57.91,1.62,1.09,1.55,2.22-.77,2.1,1,2.47,2.17,1.61,5.22,3.24,10.43,4.75,15.67a31.33,31.33,0,0,1,.68,4.56l-1.28.41-5.05-11.4-2.11,7.09L264,533.93l1.51-.17c.33-7,.65-14.1,1-21l5.34-1.06a19.77,19.77,0,0,1-2.13,11.43c-2.65,5.23-3.27,10.66-.58,16l1.3.2q1.6-8.6,3.23-17.19l1.33.24c-.29,2.31-.49,4.63-.88,6.91-1.16,6.83-2.15,13.6,2.2,19.83a10.88,10.88,0,0,1,.94,2.82l-.87.43c-1.11-1.81-2.16-3.66-3.38-5.4a7,7,0,0,0-1.95-1.36,6.72,6.72,0,0,0-.95,2.39c.08,3.61,7.54,10.75,11.18,10.81.26,0,.52-.24.9-.44.15-6.69-4.88-12.9-2.65-19.75l1.66-.19c.19,2.27.34,4.54.58,6.8.19,1.84,0,4,.82,5.46a115.28,115.28,0,0,0,7.25,10.73,17.91,17.91,0,0,0,3.17,2.74l.73-.47c-.47-1.78-.85-3.59-1.42-5.34-1.55-4.7-3.29-9.34-4.7-14.08-.45-1.49-.07-3.23-.07-4.86,2.3,6.56,4.17,13,7.82,19.36l1.55-3.23,2.18,5.07h-2.35l0,1.06a16.86,16.86,0,0,0,3.83,0c2.58-.63,4.91-1,6.93,1.39.4.48,1.68.2,2.55.27l.12-.58,3.3,3c.3-1.45.49-2.38.69-3.31l1-.07a33,33,0,0,1,.57,4.16c0,.95-.92,2.28-.55,2.8.78,1.07,2.15,1.72,3.27,2.54l.55-.71-1.45-3.32c4.25-3.1,4.34-4.57.59-8.14-1.38-1.31-2.9-2.47-4.25-3.81a11.9,11.9,0,0,1-3.69-9.83l9.13,11.23,1-.46,1.61-9.79h1.2c.28,1.25.47,2.52.85,3.74.78,2.48,1.25,5.16,2.57,7.33,2.8,4.63,4.74,4.76,8.11,1.79,3.72,3.43,7.37,6.79,11,10.19a3.79,3.79,0,0,1,1.17,1.81c.49,2.34,2.16,2.6,4.05,2.54,1.16,0,2.32-.19,3.48-.23s2,0,3.07,0l0,.79c-4.59,0-9.18,0-13.77,0a21.46,21.46,0,0,0-4.6.5c-2,.47-3.87,1.73-5.8,1.73a98,98,0,0,1-13.25-.94c-14.7-2-29.44-2.8-44.22-1.34-3,.29-5.86,2-8.79,3-.13,0-.32-.09-.48-.13.11-.89.23-1.77.35-2.65-4.19-.73-8.94,1.34-10.75,4.69-.36.66-.61,1.88-.27,2.29a2.94,2.94,0,0,0,2.42.88,23.69,23.69,0,0,0,4.13-1.9c.71,3.79,3.8,5,6.95,6,5.6,1.8,11.34,2.91,17,.33,4-1.82,5.7-1.84,10.17-.87a110.43,110.43,0,0,0,15.3,2c1.89.15,3.86-1,5.81-1.12,9.08-.33,18.16-.47,27.25-.7,1,0,2.32.22,3.11-.27,4-2.44,7.73-.77,11.51.43,5.86,1.84,8.15-.16,6.78-6.11-1.41-6.14-3.05-12.23-4.49-18.37-.66-2.82-2.22-5.92,1.54-7.95.13-.07,0-.59,0-.85L359,552.1c-.86,1.64-1.69,3.44-2.73,5.11s-1.38,4.13-4.45,3.56c2.6-6.59,5.11-13,7.63-19.34l-.94-.46-5.94,6.36-.77-.65c1.87-5.07,3.32-10.36,7.92-14.62.38,1.71.63,2.86.93,4.23l3.3-2.49c.82,1.45,1.89,2.62,2.13,3.94.65,3.7.84,7.47,1.46,11.18.28,1.7.66,4.14,1.8,4.76,2.09,1.13,2.39,2.63,2.77,4.53.81,4,1.75,8,2.76,12a12.84,12.84,0,0,0,1.54,2.73l1.29-.39q-1.74-15.69-3.49-31.39l-.51.05q-.7,3-1.4,6c-.6-.43-.73-.73-.74-1-.22-6.12-.44-12.23-.61-18.35,0-1.67-.13-3-2.25-3.54a4,4,0,0,1-2.14-2.86c-.59-4.27-.68-8.61-1.26-12.89a91,91,0,0,0-2.05-9.76,13.47,13.47,0,0,0-1.49-2.86l-1,.34c0,2.37.05,4.74,0,7.1s-.27,4.75-.42,7.13a2.1,2.1,0,0,1-.9-1.6c-1.45-6.11-2.87-12.24-4.46-18.32-.26-1-1.23-2.37-2.09-2.55-4.82-1-5-5.27-6.89-8.9,3.57,1.25,4.08-.44,4.33-3.08.12-1.26,1.44-2.4,2.25-3.64-2.59-4-5.45-8.34-8.47-13l-2.55,3.26c-2.62-7.56-5-14.4-7.36-21.21-1.8-5.13-3.44-10.34-5.61-15.32-1-2.34-1.4-4.05.32-5.27-1.93-2.92-3.89-5.6-5.53-8.46-2.72-4.72-5.21-9.58-7.87-14.34-.35-.63-1.11-1-1.95-1.78-.81,3.71.58,5.9,3.06,7.75a3.91,3.91,0,0,1,1,2.37c0,.29-.91,1.12-1.14,1a7,7,0,0,1-2.18-1.45,4.19,4.19,0,0,1-.91-1.64c-2.08-6.12-4.14-12.25-6.41-19L303.28,390l-14.95-20,3.26-2.65c-1.2-1.22-2.49-3.49-3.58-3.4-1.59.13-3,2-4.79,3.27-2.41-1.7-3.32-6.43-8.64-6.86l5.95,8.41c-2.77.9-4.46.29-5.83-1.54-1-1.35-2.19-2.57-3.18-3.92-4.72-6.45-9.86-12.64-13.92-19.49-2.7-4.56-6-7.9-10.91-8.7a152.85,152.85,0,0,0-21-1.87,19.65,19.65,0,0,0-9,2.5c-3.88,2-6,2-8.82-1.62a19.24,19.24,0,0,0-3.13,2.43c-1.65,1.91-3,4.07-4.65,6-.67.78-1.94,1.78-2.71,1.62-5-1-7-.23-8.44,4.5-1.58,5.24-4.62,9.76-5.59,15.47a22.69,22.69,0,0,1-10.43,14.92c-1,.62-1.39,2.2-1.88,3.41-1.21,3-2.34,6-3.44,9-.4,1.11-.65,2.27-1,3.6a7,7,0,0,0,1.4,0c.29-.11.71-.23.81-.46a26.46,26.46,0,0,1,9-10.9c1.21-.88,1.68-2.79,2.73-4.65l1.41,3.29,10.83-7.09.58.86c-2.23,2.34-5,4.37-6.58,7.09a124.28,124.28,0,0,0-6.6,14.58,5.54,5.54,0,0,0-.09,4c.76,1.56,2.26,2.76,3.45,4.12,1.07-1.08,2.54-2,3.13-3.26,3.75-8.27,7.48-16.52,14-23.07a50.16,50.16,0,0,1,4.06-3.32c-1.65,3.84-3.67,7.15-5.49,10.57-4.42,8.3-8.72,16.68-13.17,25-.7,1.31-1.93,2.32-3.27,3.88l.21,4.68-1.12.12-1.52-4.93c.49,5.87-4.5,9.14-6.81,13.53l4.6,1.94c3.17-2.33,3.46-9.17,9.75-8.39.5.93.79,2.23,1.6,2.88,3.88,3.09,4.49,7.5,4.9,11.91.16,1.68-.51,3.44-.81,5.17l-.76-.09-2.4-4.78c-1.36,7.34-1.36,7.3-8.45,7.53a18.17,18.17,0,0,0-3.5.89l5.28,3.56c3.55-2.29,3.51-2.26,5.78,1.59.35.58,1.34.78,2,1.15a11.6,11.6,0,0,0-.18-2.44c-.41-1.39-1-2.73-1.81-4.87,5.58,1.22,7.36-2.67,10.17-5.66l5.37,6.77-5.45,1.37-.46-2.85c-1.17.58-2,1.39-1.94,2.15a3.06,3.06,0,0,0,1.51,2.09c3.47,1.82,4.24,3.19,3.89,7.59l-.78-.38-3.13,5.79c-.32-.19-.79-.3-1-.6-1.08-1.57-2.38-3.21-4.29-1.54s.77,2.5,1.19,3.77a3.68,3.68,0,0,1-.54,2.48c-4.55,0-4.21,3.08-4,6.1.11,1.58.36,3.15.37,4.72a119.33,119.33,0,0,1-.19,12c-.36,3.72-1.47,7.36-2,11.06-.75,4.88-.29,10.19-2.11,14.58-3.51,8.47-4.19,17.14-4.14,26,0,1.21,1.3,2.58,2.3,3.57s2.52,1.31,3.39,2.3a3.26,3.26,0,0,1,.31,2.93c-.33.66-1.66,1.09-2.57,1.13-7.22.33-7.41.41-8.86,5.92s-2.84,11-4.22,16.48c-.23.9-.28,1.85-.42,2.78l1,.41,4-6.33,1.08,6.93c-.2,2.15-1.87,2.95-4.2,3.18-4.4.43-6.46,2-7,5.6-.36,2.52-.07,5.13-.07,8.39,1.57-1.8,2.5-3.23,3.79-4.21.85-.65,2.68-1.27,3.23-.83,2.39,1.87,3.55.41,4.86-1.24.76-1,1.62-1.82,2.76-3.09Zm42.33-330.72,1.23-.38a14.47,14.47,0,0,0,2.35,3.19c1.15.89,3.05,2.1,3.93,1.69,1-.49,1.53-2.51,1.94-4a5.92,5.92,0,0,0-.28-2.8c-.62-2.53-1.46-5-1.95-7.57-.32-1.65-.7-2.75-2.71-2.75a2.37,2.37,0,0,1-1.84-1.43c-.09-.65.66-1.52,1.22-2.12s2.1-1.15,2.28-1.92c1-4.28,4-7.1,6.78-10.13a31.14,31.14,0,0,0,2.59-3.78l-1-1c-2.81,1.55-5.69,3-8.4,4.66-4.31,2.71-7.63,6.07-6.23,11.85,0,.15-.16.36-.64,1.36-3.49-.32-7.34-.44-11.09-1.15-1.32-.25-2.36-1.95-3.56-2.95-.66-.55-1.39-1.42-2.09-1.42a3.58,3.58,0,0,0-2.13,1.39,6.51,6.51,0,0,0-.78,2.09c-2.58-2.57-2.57-2.56-5.93-1.45a2.28,2.28,0,0,1-1.46,0c-6.85-2.78-13.13-1.47-19.13,2.46A29,29,0,0,1,173.5,244c-2.35.93-4.1,2.14-3.77,5.06l-6.91,1.12.35,6.19a18.84,18.84,0,0,0-2.76-1.88,3.76,3.76,0,0,0-1.87,0c-.13,2.12-.65,4.41,0,6.33.66,2.08,2.67,1.12,4,.34,2.38-1.35,4.56-3.08,7-4.25.82-.39,3.15.33,3.2.74.37,2.85,2.69,2.48,4.44,3.19,2.57,1,5.1,2.19,7.58,3.42,1.5.74,2.78,2.15,4.33,2.51,3,.69,3.37,2.31,2.56,4.86-1.36,4.29-2.79,8.57-3.85,12.93-.46,1.88-.08,4-.08,6l-.94,0a15.44,15.44,0,0,1-1-2.21c-1.09-3.94-3-4.52-6.27-2a3.67,3.67,0,0,1-2.5.95c-4.88-1.22-9.75-2.48-14.52-4-2.23-.73-3-2.72-2.75-5.13s.41-4.93.56-6.87c-2.25.39-4.33,1.16-6.33,1-3.47-.27-5.8-2.56-6.81-5.8-.75-2.38-1.92-2-3.17-.83a25.68,25.68,0,0,0-2.83,3.88c4.89-.13,3.56,3.16,4.13,5l5.23,1.43c-4.34,2.67-4.45,4-1.43,7.2.29.31.8.59.83.91.49,4.95,4.58,7.66,6.95,11.43.79,1.26.83,3,1.22,4.5l-.76.66,6.62,2.32c3-4.87,7.41-6.6,12-7.71,3-.72,4.24.78,3.13,3.71-.72,1.91-2.07,3.58-3.79,6.42,3.91-1.88,6.75-1.63,8.94,1.16a17.81,17.81,0,0,0,1.77,1.7c-.8.51-1.58,1.43-2.4,1.46-2.91.11-3.93,2.13-4.81,4.32-.51,1.27-.81,2.62-1.31,4.31,1.08-.55,2.44-.9,3.26-1.76a14.49,14.49,0,0,0,1.9-3.48c1.64,1.26,2.94,2.9,4.58,3.36,2.66.74,7.36-3.17,8-6.09.66-3.24-.89-5.63-4.47-7-1.88-.7-3.74-1.47-5.61-2.21l.07-1.35c3.32-.71,6.62-1.59,10-2.09,4.94-.73,9.94-.48,14.36-3.88,2.8-2.16,6.64-1.91,10-.27s6.52,3.51,9.86,5.08a2.6,2.6,0,0,0,2.28-.9,9.79,9.79,0,0,0,1.12-3.25,5.06,5.06,0,0,1,4.33-4.22,15.62,15.62,0,0,0,8.91-6.29l-5.59-1.18q1.27-2.62,2.58-5.26l-2.82-.57c3.54-7.26,3.54-7.26.16-8.25a31,31,0,0,0,1.13-4.88,10.84,10.84,0,0,0-.84-3.36c-1,.8-2.55,1.39-3,2.43a69.48,69.48,0,0,0-2.52,8.59c-.61,2.41-1.07,4.87-1.59,7.3-1.15-5.43-1.15-5.43-3.31-6.1-1.84,3.41-3.64,6.73-5.76,10.64l-1.72-2.64L213,287c-.09-.19-.42-.56-.38-.88.16-1.29,1.07-3.13-1.22-3-.93.07-1.93,1.73-2.52,2.86a12.62,12.62,0,0,0-.71,3.37l-1,0c-.37-1.45-.71-2.9-1.12-4.34-.53-1.88-.78-3.95-1.75-5.58-1.74-2.92-4.06-5.49-5.87-8.37-.72-1.15-.75-2.73-1.09-4.12l.73-.16,2.46,2.63c1.59-2.36,3-4.49,4.46-6.63,3.27-4.93,6.54-5.86,12.46-3.19a24.26,24.26,0,0,1-2.81,2A60.35,60.35,0,0,0,209,264.5c-1.17.77-1.91,2.19-2.84,3.32,1.54.6,3.21,1.9,4.59,1.64,2.64-.49,5.11-1.86,7.65-2.87C222.49,265,226.6,263.32,225.64,257.29ZM410.2,585.61l1-.74-4.93-9.43,4.59-.89c3,2.46,5.29,5.19,8.25,6.66,4,2,6.6.58,7.4-2.35,3-1.09,6.85-1.29,7.91-3.11,1.82-3.11,4.46-4.28,7.2-5.5a10.65,10.65,0,0,0,6.7-8.2,80.58,80.58,0,0,1,3.4-11.09c2.88-7.81,2-15.34-1.52-22.65-1.28-2.69-2.35-5.15.05-8-1.1-.11-1.93-.46-2.52-.21-3.32,1.37-5.38-.49-7.4-2.63a4.21,4.21,0,0,0-1.42-1.23c-1.14-.4-2.72-1.14-3.45-.68-.94.6-1.91,2.41-1.66,3.38a76.22,76.22,0,0,0,3.5,9.65c.75,1.82,2.12,3.43,2.69,5.3,2.42,7.87-.11,14.83-4.8,21-7.21,9.5-17.14,14-28.92,14.64-5,.28-6.67,3.22-3.71,7.31C404.82,580,407.63,582.71,410.2,585.61ZM181.5,338.78l-.56-.27c-1.53,1.69-3.07,3.38-4.6,5.08q2.37-10.08,4.73-20.09l-1.11-.73c-2.11,6.67-8.18,4.66-12.8,5.84l1.64,3.64a11.17,11.17,0,0,0-2.88-.36,16.41,16.41,0,0,0-2.95,1c1,.48,2.09,1.47,3,1.34,2.78-.4,5.49-1.24,8.25-1.91-.81,2.55-1.69,5.29-2.61,8.18-2.61-2.91-4.16-2.76-5.66.42-3,6.47-6.24,12.87-8.87,19.5-1.33,3.37-1.55,7.17-2.28,10.78,6.3-2.9,3.3-9.57,6.8-13.5-.18,1.68-.37,3.37-.56,5l.91.56,9.4-9c-1.9,3.53-4.21,6.68-6.29,10s-5.19,6-4.72,10.71l10.59-13.44,1.39,1c-1.88,3.29-4.15,6.42-5.52,9.9-1.68,4.27-6.38,4.29-9.22,6.89,1.8,2.23,3.84,2.74,5.6,1.41a43,43,0,0,0,6.67-6.41,39.7,39.7,0,0,0,4.58-6.8c1.41-2.56,3.1-5.23,3.52-8a23.39,23.39,0,0,1,8.81-15c2.67-2.2,3.14-7.81.65-9.83-.33.89-.54,2.44-1,2.51-4.4.71-3.69,4.83-5.17,7.45-1.17,2-2.25,4.15-3.37,6.23l-.62-.38Zm-23.62-90.35.74-1-2.19-2.92c-2.52-3.34-5.27-6.55-7.44-10.11-.71-1.17.08-3.24.18-4.9,1.57.12,3.69-.36,4.62.48,2.52,2.26,5.18,4.77,6.59,7.74,2.8,5.91,8.78,7.31,13.55,2.44-3.22-2.73-6.5-5.37-9.61-8.2a27.7,27.7,0,0,0-15.2-7.07c-3.42-.48-4,.06-4.11,3.59a40.23,40.23,0,0,1-.82,5.07c-.16.94-.75,2.19-.36,2.75a24,24,0,0,0,3.67,3.82c2.36,2.19,4.72,4.39,7.18,6.47A19.86,19.86,0,0,0,157.88,248.43Zm56.88,54.92,3.73,5.93-5.68-2.21L212,308.4a61.37,61.37,0,0,0,5.85,5.24c2.87,2,4.3,1.3,5.17-2.08a13,13,0,0,0,.22-1.88c.18-1.88,1-2.79,3.09-2.59,1.87.18,3.76,0,5.65,0l.1-.93-18.67-8.63c-.56,4.74,6,2.27,5.59,6.4Zm-14.38,23.09c1.41-.36,3.42-.38,4.73-1.35a6.32,6.32,0,0,0,2-4.22,4,4,0,0,0-2-3c-3.57-1.67-7.42-2-10.88.1a5.23,5.23,0,0,0-2.06,4c0,1.18,1.43,2.74,2.61,3.33C196.29,326.07,198.21,326,200.38,326.44Zm7.51-23.62a.62.62,0,0,0-.51-.07c-3.12,1.21-6,2.05-7.09-2.58-.12-.51-1.52-.73-2.33-1.08-.38.88-1.24,1.86-1.08,2.63a16.38,16.38,0,0,0,8.74,11.4c2,1.06,4.69.88,7.07,1.26l.43-1c-1.25-1.49-2.82-2.81-3.66-4.5S208.42,305,207.89,302.82ZM177.15,527.25c3.14-4.53.91-18.78-3.33-22.61C168.75,510.23,171.79,518.42,177.15,527.25Zm6-258.41c-1.6-1.62-2.56-3-3.88-3.85a53.66,53.66,0,0,0-9.3-5c-1-.39-3.37,1-4.17,2.13-1,1.45-1.42,3.89.88,4.89C171.71,269.15,177,269.69,183.2,268.84Zm53.07-28.37c2.78,1.84,5.6,1.57,8.33,1,.79-.16,2-1.46,1.92-2.15a78.74,78.74,0,0,0-1.47-10.13c-.09-.41-2.51-.81-2.57-.68a11.67,11.67,0,0,1-6.56,6.48c-.17.07-.16.56-.25.93l4.08.46ZM171.63,521.93c-3.58,5-2.83,17,1,21,.36.38,1.23.74,1.6.56a2.44,2.44,0,0,0,1.26-1.58A32.24,32.24,0,0,0,171.63,521.93Zm210,51.73,1.24-.92a8.05,8.05,0,0,0,.3-2c-.26-3.24-.58-6.47-.94-9.71-.32-3-.57-6-1.18-9-.17-.83-1.48-1.43-2.27-2.14a7.22,7.22,0,0,0-1.15,2.33,39.85,39.85,0,0,0,3.32,19.32C381.19,572.22,381.35,573,381.58,573.66ZM151.29,257.07c.46-.27,1.85-.74,1.83-1.14a3.49,3.49,0,0,0-1.28-2.58c-3.25-1.84-4.37-4.63-4.22-8.16,0-.31.07-.76-.1-.91-.79-.7-1.65-1.32-2.49-2-.43.79-.92,1.55-1.28,2.38-.52,1.2-1,2.43-1.39,3.68-.17.55-.39,1.32-.15,1.73A13.83,13.83,0,0,0,151.29,257.07Zm68,14.47c.2,1.63.76,3.06.41,4.22a6.77,6.77,0,0,1-2.53,3.21c-.38.27-1.7-.78-2.59-1.23A13.83,13.83,0,0,1,216.1,275c1.18-1.35.9-3.28-.81-3.24a5.74,5.74,0,0,0-4,2.11c-1.51,2.12-.48,5.6,1.59,7a5.82,5.82,0,0,0,7.25-.88c1.78-1.85,2.37-6.34,1-7.95C220.83,271.72,220.19,271.76,219.3,271.54ZM383.56,559.17c.35,3.27-.73,6.16,2.14,8.88,2.09,2,3.12,5.07,5,8.35C392.3,567.38,389.39,560.31,383.56,559.17Zm-198-86.79c.43-2.34-5.87-17.52-7.74-18.67C175.29,457.77,181,471.46,185.6,472.38Zm-18.82,67.34c-.3,6.44.72,12.16,4.45,17.73C173.75,552.09,171.05,541.42,166.78,539.72ZM169,412.46c.95-7.7,5.38-13.64,6.15-21.51C169.65,395.28,165.92,407.76,169,412.46Zm13.35,73.86c2.28-4.79-.66-13.49-5.16-14.89-.3,2-1.39,4.23-.74,5.71C177.85,480.28,180.16,483,182.35,486.32Zm-9.19-66.93c3.7-3.69,4.11-13.75.61-18.92C171.83,407,172.13,413,173.16,419.39Zm9.32,77.49a96.84,96.84,0,0,0-2.52-9.79c-.58-1.61-2.2-2.84-3.35-4.24-.91,1.57-1.83,3.13-2.72,4.7a.54.54,0,0,0,0,.39C178.84,489.09,177.48,495.46,182.48,496.88ZM398.32,580l.89-.43c1-5.4-1.06-10.11-3.87-15.27-1,1.86-3,3.93-2.61,5.09C394.1,573.08,396.39,576.46,398.32,580ZM174.75,492.29c-1.91,4.69,2.52,15.58,6.3,16.28C180.12,502.78,178.84,497.36,174.75,492.29ZM156.52,266.48c0-4.15-2.53-7.29-5-6.67-1,.26-2.25,2.05-2.43,3.29a4.83,4.83,0,0,0,4.8,5.13C155,268.12,156,266.88,156.52,266.48Zm67.07,190.28c-1-5-1.81-9.43-2.8-14.57C216.41,447.63,217.49,452.66,223.59,456.76ZM164.67,552c-.87,5.18.15,9.49,1.55,13.74a1.46,1.46,0,0,0,1.24.64,1.54,1.54,0,0,0,1.07-.83C169.58,563.05,167.47,554.63,164.67,552Zm5.41-274.51c.51-.09,1,0,1.23-.23a8.5,8.5,0,0,0,2.23-2.11c.18-.32-.62-1.67-1.18-1.84-1-.3-3-.29-3.12,0a12.08,12.08,0,0,0-.6,5.48c.41,1.85,1.4,4,4.84,3.16Zm-16.67,51.16c-.42,1.36-1.23,2.62-.89,3.14a9.26,9.26,0,0,0,3.48,3.36c.92.43,2.41-.36,3.65-.6-.45-1.07-.65-2.43-1.43-3.14C157.12,330.4,155.58,329.86,153.41,328.66ZM261.23,442.35l-3.12-3.28c-.89,1.34-2.11,2.59-2.56,4.07a2.15,2.15,0,0,0,2.21,3C259.87,446.13,260.79,444.94,261.23,442.35ZM160.09,346.13c-4.08-.37-5.75,2.82-4.41,8C158.72,353.44,159.92,351.32,160.09,346.13Zm85.19,110.53a17.9,17.9,0,0,0,2-13A16.56,16.56,0,0,0,245.28,456.66ZM163.4,583a29.9,29.9,0,0,0-2.8-2.39,21.28,21.28,0,0,0-3.77,4.17c-.16.25,1.57,1.69,2.42,2.59Zm73.77-126.6c.52.2,1.62,1.06,2.53.89a3.43,3.43,0,0,0,2.21-2.15c.49-2,1.06-4.28-1.26-6.12C239.52,451.37,238.5,453.55,237.17,456.36ZM211.08,441.3l-1,.3c.59,2.51,1.12,5,1.85,7.49.15.53,1,.86,1.53,1.28.38-.54,1.08-1.07,1.09-1.61C214.56,445.73,213.83,443,211.08,441.3Zm-25.4-4.18,1.72-.59c-.64-2.58-1.2-5.19-2-7.72-.16-.51-1.27-.71-1.94-1.05-.26.62-.88,1.37-.72,1.85C183.61,432.15,184.68,434.63,185.68,437.12Zm56.65-112.95c.43-.92.61-1.11.59-1.28-.16-1.51-6-5.53-7.22-4.81a2.83,2.83,0,0,0-.52,2.3C237.48,321.76,239.92,322.93,242.33,324.17ZM253,575c-4.14-.54-5.62.07-6,2.44-.16,1,.59,2.23.92,3.35.87-.41,2-.6,2.55-1.28A32.15,32.15,0,0,0,253,575Zm-89.33-246.1c-.37-3.37-2.65-3.86-5-4-2.15-.14-2.26,1.33-1.31,2.66C158.88,329.72,161,330,163.62,328.94ZM268.5,353.11l-.84.47,4.18,6.27,3.86-3.11ZM147.66,311.33c1.25,3.13,4.16,4.87,6.87,4.29C153.72,312,151.53,310.54,147.66,311.33Zm1.24,274.8a6.17,6.17,0,0,0-.26-8.86C147.46,580.31,146.94,583.17,148.9,586.13ZM270.35,441.45c-.45,2.05-.93,3.67-1.12,5.33a6.57,6.57,0,0,0,.61,2.3c.81-.5,2.09-.81,2.36-1.52C273,445.37,272.53,443.32,270.35,441.45Zm-88.82-84.82,1.08.59,3.93-6.4C182.46,351.15,181.18,353,181.53,356.63Zm68-76.89a14.92,14.92,0,0,0,.18-3.34,39.2,39.2,0,0,0-1.4-4c-.53.21-1.5.41-1.5.61a21.57,21.57,0,0,0,.41,4.76C247.34,278.38,248.32,278.78,249.51,279.74Zm45.64,176.88c.39,2.31.65,4.25,1.15,6.13.06.25,1.77.5,2,.18C300,460.9,298.47,457.36,295.15,456.62Zm-61-155,.26,1.16,7.87-2.09C238.6,298.37,237.08,298.71,234.16,301.66Zm-62.55-.5-.77-.88-7,5.22.67.92A8,8,0,0,0,171.61,301.16ZM290,458.06l3.56,8.77C295.62,462.86,294.43,460.1,290,458.06ZM227.29,329.31c-1.45-1.25-2.46-2.52-2.82-2.36a15.8,15.8,0,0,0-3.2,2.46c.66.59,1.38,1.71,2,1.65C224.38,331,225.46,330.16,227.29,329.31ZM168,322.86c-.93-2.27-2.11-3.71-4.36-2.69-.65.3-1.38,2.14-1.1,2.48C164,324.51,165.9,324,168,322.86Zm78.52,6.71c-2.61-3.63-5.89-4.27-8.27-1.78Zm-2.61-12.35L245,315.5l-4.42-3.21c-.33.79-1.11,2.15-.93,2.29A38.8,38.8,0,0,0,243.87,317.22ZM252,448.28l-1,.24q-.74,2.7-1.45,5.4l1.17.68a21.89,21.89,0,0,0,2.79-3.94C253.69,450.18,252.52,449.09,252,448.28Zm-7.53-193.71c1.75-1.13,2.81-2.42,1.61-4.19-.37-.55-2.27-.87-2.64-.49C241.82,251.56,242.65,253.08,244.46,254.57Zm-93.52,66.77c-.11,2.67,1.53,3.51,3.63,3.72.5.05,1.07-.64,1.61-1-1.32-1-2.61-2-4-2.93C152,321,151.44,321.25,150.94,321.34Zm5.11-13.73-.37,1c1.81,2.54,3.86,2.89,6.47.35Zm67.68-28.14.57.26a49.65,49.65,0,0,0,3-4.61c.24-.47-.37-1.39-.59-2.1-.64.37-1.66.62-1.84,1.14A49.76,49.76,0,0,0,223.73,279.47Zm170.6,299.94c-3.11-2.12-5.53-1.08-6.25,2.71ZM227.85,328.92h5.34c-.18-.71-.15-1.8-.6-2.06C230.9,325.86,229.23,325.8,227.85,328.92Zm17,114.15-.53-.87-4.59-2.06-.67.51c.88,1.16,1.57,2.63,2.73,3.36C242.38,444.39,243.81,443.43,244.86,443.07ZM152.53,302l-.48,1.19,7.67,3.21.56-1.33Zm95,198.25-.25,2.07,4.46.45a9.1,9.1,0,0,0,.07-1.84C250.44,500.56,249,500.4,247.56,500.2Zm-.4,11.9.89.87c1-1.09,2-2.14,2.82-3.31.14-.19-.5-.93-.79-1.42-1,1-2,1.94-2.9,2.95C247,511.36,247.16,511.79,247.16,512.1Zm-84.84,50.63c-.65,2.54-1.17,4.55-1.82,7.08C163.72,568.08,164.13,566.36,162.32,562.73Zm170.32,4.17L331,568c.7,1.16,1.4,2.33,2.11,3.49.51-.37,1.52-1,1.47-1.07C334,569.19,333.32,568.06,332.64,566.9ZM159.84,321.14l.53-1.88-4.7-1.33-.49,1.7ZM324.38,562.48l-1.45.78,2.55,4.91,1.57-.84ZM176.29,323.26c-.32-.59-.44-1.16-.69-1.23a21.2,21.2,0,0,0-3.78-.65c-.16,0-.39,1-.59,1.51,1.15.27,2.29.59,3.46.77A5.2,5.2,0,0,0,176.29,323.26ZM164,274.87l-1.91.47,1,4.4c.57-.22,1.65-.47,1.63-.64C164.6,277.68,164.28,276.27,164,274.87ZM262.22,536c-3.55,1.88-3.88,2.58-2.32,5.28ZM161.34,312.91c-.81.89-1.83,1.62-1.71,2a2.59,2.59,0,0,0,1.69,1.61c.68.06,1.44-.74,2.16-1.16Zm23.57,147.67c1.33.9,2,1.75,2.7,1.72s1.3-.95,1.95-1.47c-.67-.49-1.28-1.23-2-1.39C187,459.32,186.26,460,184.91,460.58Z" transform="translate(-126.56 -219.25)"/><path class="cls-1" d="M183.31,588l-1.81-3.48c-1.14,1.27-2,2.14-2.76,3.09-1.31,1.65-2.47,3.11-4.86,1.24-.55-.44-2.38.18-3.23.83-1.29,1-2.22,2.41-3.79,4.21,0-3.26-.29-5.87.07-8.39.51-3.58,2.57-5.17,7-5.6,2.33-.23,4-1,4.2-3.18L177,569.8l-4,6.33-1-.41c.14-.93.19-1.88.42-2.78q2.07-8.25,4.22-16.48c1.45-5.51,1.64-5.59,8.86-5.92.91,0,2.24-.47,2.57-1.13a3.26,3.26,0,0,0-.31-2.93c-.87-1-2.44-1.35-3.39-2.3s-2.29-2.36-2.3-3.57c0-8.87.63-17.54,4.14-26,1.82-4.39,1.36-9.7,2.11-14.58.56-3.7,1.67-7.34,2-11.06a119.33,119.33,0,0,0,.19-12c0-1.57-.26-3.14-.37-4.72-.22-3-.56-6.1,4-6.1a3.68,3.68,0,0,0,.54-2.48c-.42-1.27-3.2-2-1.19-3.77s3.21,0,4.29,1.54c.2.3.67.41,1,.6l3.13-5.79.78.38c.35-4.4-.42-5.77-3.89-7.59a3.06,3.06,0,0,1-1.51-2.09c0-.76.77-1.57,1.94-2.15l.46,2.85,5.45-1.37-5.37-6.77c-2.81,3-4.59,6.88-10.17,5.66.81,2.14,1.4,3.48,1.81,4.87a11.6,11.6,0,0,1,.18,2.44c-.7-.37-1.69-.57-2-1.15-2.27-3.85-2.23-3.88-5.78-1.59l-5.28-3.56a18.17,18.17,0,0,1,3.5-.89c7.09-.23,7.09-.19,8.45-7.53l2.4,4.78.76.09c.3-1.73,1-3.49.81-5.17-.41-4.41-1-8.82-4.9-11.91-.81-.65-1.1-1.95-1.6-2.88-6.29-.78-6.58,6.06-9.75,8.39l-4.6-1.94c2.31-4.39,7.3-7.66,6.81-13.53l1.52,4.93,1.12-.12-.21-4.68c1.34-1.56,2.57-2.57,3.27-3.88,4.45-8.29,8.75-16.67,13.17-25,1.82-3.42,3.84-6.73,5.49-10.57a50.16,50.16,0,0,0-4.06,3.32c-6.55,6.55-10.28,14.8-14,23.07-.59,1.29-2.06,2.18-3.13,3.26-1.19-1.36-2.69-2.56-3.45-4.12a5.54,5.54,0,0,1,.09-4,124.28,124.28,0,0,1,6.6-14.58c1.55-2.72,4.35-4.75,6.58-7.09l-.58-.86-10.83,7.09-1.41-3.29c-1.05,1.86-1.52,3.77-2.73,4.65a26.46,26.46,0,0,0-9,10.9c-.1.23-.52.35-.81.46a7,7,0,0,1-1.4,0c.37-1.33.62-2.49,1-3.6,1.1-3,2.23-6,3.44-9,.49-1.21.91-2.79,1.88-3.41a22.69,22.69,0,0,0,10.43-14.92c1-5.71,4-10.23,5.59-15.47,1.42-4.73,3.46-5.55,8.44-4.5.77.16,2-.84,2.71-1.62,1.65-1.91,3-4.07,4.65-6a19.24,19.24,0,0,1,3.13-2.43c2.86,3.6,4.94,3.61,8.82,1.62a19.65,19.65,0,0,1,9-2.5,152.85,152.85,0,0,1,21,1.87c5,.8,8.21,4.14,10.91,8.7,4.06,6.85,9.2,13,13.92,19.49,1,1.35,2.18,2.57,3.18,3.92,1.37,1.83,3.06,2.44,5.83,1.54l-5.95-8.41c5.32.43,6.23,5.16,8.64,6.86,1.75-1.29,3.2-3.14,4.79-3.27,1.09-.09,2.38,2.18,3.58,3.4l-3.26,2.65,14.95,20,3.62-4.68c2.27,6.77,4.33,12.9,6.41,19a4.19,4.19,0,0,0,.91,1.64,7,7,0,0,0,2.18,1.45c.23.09,1.19-.74,1.14-1a3.91,3.91,0,0,0-1-2.37c-2.48-1.85-3.87-4-3.06-7.75.84.75,1.6,1.15,1.95,1.78,2.66,4.76,5.15,9.62,7.87,14.34,1.64,2.86,3.6,5.54,5.53,8.46-1.72,1.22-1.34,2.93-.32,5.27,2.17,5,3.81,10.19,5.61,15.32,2.4,6.81,4.74,13.65,7.36,21.21l2.55-3.26c3,4.64,5.88,9,8.47,13-.81,1.24-2.13,2.38-2.25,3.64-.25,2.64-.76,4.33-4.33,3.08,1.86,3.63,2.07,7.87,6.89,8.9.86.18,1.83,1.56,2.09,2.55,1.59,6.08,3,12.21,4.46,18.32a2.1,2.1,0,0,0,.9,1.6c.15-2.38.35-4.75.42-7.13s0-4.73,0-7.1l1-.34a13.47,13.47,0,0,1,1.49,2.86,91,91,0,0,1,2.05,9.76c.58,4.28.67,8.62,1.26,12.89a4,4,0,0,0,2.14,2.86c2.12.56,2.21,1.87,2.25,3.54.17,6.12.39,12.23.61,18.35,0,.3.14.6.74,1q.69-3,1.4-6l.51-.05q1.75,15.69,3.49,31.39l-1.29.39a12.84,12.84,0,0,1-1.54-2.73c-1-4-1.95-8-2.76-12-.38-1.9-.68-3.4-2.77-4.53-1.14-.62-1.52-3.06-1.8-4.76-.62-3.71-.81-7.48-1.46-11.18-.24-1.32-1.31-2.49-2.13-3.94l-3.3,2.49c-.3-1.37-.55-2.52-.93-4.23-4.6,4.26-6.05,9.55-7.92,14.62l.77.65,5.94-6.36.94.46c-2.52,6.37-5,12.75-7.63,19.34,3.07.57,3.45-2,4.45-3.56s1.87-3.47,2.73-5.11l4.25,1.52c0,.26.11.78,0,.85-3.76,2-2.2,5.13-1.54,7.95,1.44,6.14,3.08,12.23,4.49,18.37,1.37,6-.92,8-6.78,6.11-3.78-1.2-7.52-2.87-11.51-.43-.79.49-2.06.25-3.11.27-9.09.23-18.17.37-27.25.7-2,.07-3.92,1.27-5.81,1.12a110.43,110.43,0,0,1-15.3-2c-4.47-1-6.2-.95-10.17.87-5.62,2.58-11.36,1.47-17-.33-3.15-1-6.24-2.25-6.95-6a23.69,23.69,0,0,1-4.13,1.9,2.94,2.94,0,0,1-2.42-.88c-.34-.41-.09-1.63.27-2.29,1.81-3.35,6.56-5.42,10.75-4.69-.12.88-.24,1.76-.35,2.65.16,0,.35.18.48.13,2.93-1,5.79-2.72,8.79-3,14.78-1.46,29.52-.66,44.22,1.34a98,98,0,0,0,13.25.94c1.93,0,3.84-1.26,5.8-1.73a21.46,21.46,0,0,1,4.6-.5c4.59-.06,9.18,0,13.77,0l0-.79c-1,0-2.05,0-3.07,0s-2.32.19-3.48.23c-1.89.06-3.56-.2-4.05-2.54a3.79,3.79,0,0,0-1.17-1.81c-3.61-3.4-7.26-6.76-11-10.19-3.37,3-5.31,2.84-8.11-1.79-1.32-2.17-1.79-4.85-2.57-7.33-.38-1.22-.57-2.49-.85-3.74h-1.2l-1.61,9.79-1,.46L310.17,546a11.9,11.9,0,0,0,3.69,9.83c1.35,1.34,2.87,2.5,4.25,3.81,3.75,3.57,3.66,5-.59,8.14l1.45,3.32-.55.71c-1.12-.82-2.49-1.47-3.27-2.54-.37-.52.57-1.85.55-2.8a33,33,0,0,0-.57-4.16l-1,.07c-.2.93-.39,1.86-.69,3.31l-3.3-3-.12.58c-.87-.07-2.15.21-2.55-.27-2-2.35-4.35-2-6.93-1.39a16.86,16.86,0,0,1-3.83,0l0-1.06h2.35l-2.18-5.07-1.55,3.23c-3.65-6.34-5.52-12.8-7.82-19.36,0,1.63-.38,3.37.07,4.86,1.41,4.74,3.15,9.38,4.7,14.08.57,1.75.95,3.56,1.42,5.34l-.73.47a17.91,17.91,0,0,1-3.17-2.74,115.28,115.28,0,0,1-7.25-10.73c-.85-1.5-.63-3.62-.82-5.46-.24-2.26-.39-4.53-.58-6.8l-1.66.19c-2.23,6.85,2.8,13.06,2.65,19.75-.38.2-.64.45-.9.44-3.64-.06-11.1-7.2-11.18-10.81a6.72,6.72,0,0,1,.95-2.39A7,7,0,0,1,273,547c1.22,1.74,2.27,3.59,3.38,5.4l.87-.43a10.88,10.88,0,0,0-.94-2.82c-4.35-6.23-3.36-13-2.2-19.83.39-2.28.59-4.6.88-6.91l-1.33-.24q-1.62,8.6-3.23,17.19l-1.3-.2c-2.69-5.35-2.07-10.78.58-16a19.77,19.77,0,0,0,2.13-11.43l-5.34,1.06c-.32,6.92-.64,14-1,21l-1.51.17-8.56-26.47,2.11-7.09,5.05,11.4,1.28-.41a31.33,31.33,0,0,0-.68-4.56c-1.51-5.24-3.14-10.45-4.75-15.67-.37-1.19-.25-2.94-2.47-2.17-.18.07-1-1-1.09-1.55-.86-9.91-1.23-19.81,1.85-29.48a15.39,15.39,0,0,1,1.11-2.61c1.85-3.43,2.59-3.59,5.8-1.21.22-.75.39-1.44.62-2.11.5-1.49,1.32-1.81,2.5-.63,2.5,2.49,3,2.5,5.08.56,1.64,1.32,3.09,2.64,4.7,3.75,2.14,1.48,4.4,2.78,6.58,4.18.53.34.95,1.08,1.48,1.16,3.81.58,5.93,2.67,6.24,6.55,0,.26.35.71.55.71,5.26.05,2.73,4.21,3.43,6.57,2-2.39,4.1-4.67,5.88-7.18.56-.8.34-2.21.33-3.34a21.21,21.21,0,0,0-.35-2.76c.51-.17.68-.26.7-.23,2.23,2.62,4.4,5.29,6.67,7.87,4.94,5.61,5.71,12.28,4.62,19.59,6.09-3.21,6.09-3.21,5.21-10.86,8.18,5.07,10.6,13.33,12.78,21.88,2.88-10.19-2.32-19.68-1.77-29.65l-1.37-.19a50.71,50.71,0,0,0-2.52,4.48c-.85,1.94-2.51,2.8-4,1.68-1.11-.87-1.65-2.93-1.75-4.51-.07-1.17,1-2.42,1.52-3.66-.5-.14-.76-.29-.85-.22-4.45,3.46-4.58,3.45-7.45-1.72-1.08-1.93-2.11-3.9-3.07-5.89s-2-3.53-4.46-4.39c-1.71-.59-2.7-3.24-4.13-5.12l-3.8,4.08c-1.88-6.31-7.2-10.89-5.67-18.16l-3.57.33c-.06-1.25-.12-2.47-.18-3.68-.92,5.36-1.08,10.51,3.24,14.75a3.53,3.53,0,0,1,.62,2.75c-.1.5-1.32,1.17-1.95,1.09a3.19,3.19,0,0,1-2-1.46c-2.75-5.06-5.39-10.18-7.91-15v9.11l-1.05.45c-.88-1.24-2.27-2.39-2.53-3.75-.78-4-1.19-8.1-1.58-12.17-.19-2-.43-3.77-3.06-3.86.2-2,.38-3.7.56-5.45a6.44,6.44,0,0,0-1.57,7.38,42.71,42.71,0,0,1,2,9.12c.13.9-.92,2-1.43,3-1-.64-2.38-1.06-2.93-2a24.54,24.54,0,0,1-1.77-4.87l-.81.07c.3,3.58.61,7.17.91,10.76l-.88.31c-3.21-3.54-4.33-8.22-5.16-12.68s-.51-9.42-.7-14.35a28.32,28.32,0,0,0-1.61,5.05c-.58,4.69-.82,9.42-1.38,14.11-.13,1-1,2-1.59,2.94l-.81-.31-.88-8.36L250.5,433c-.67-2.63-1.23-4.79-1.62-6.34-.61,2.25-1.38,5.11-2.17,8-1.65-1.28-2.59-2.45-3.79-2.86-2.72-.95-2-2.05-.91-4a51.81,51.81,0,0,0,3.78-8.83c.33-1-.37-2.3-.6-3.47l-.81-.06a28.17,28.17,0,0,1-1.36,2.89c-.61,1-1.4,1.89-2.11,2.83-.83-.86-1.67-1.7-2.48-2.58a13.21,13.21,0,0,1-1-1.62c-1.69,3.14-1.05,6-.7,8.72.45,3.54,1.27,7,1.47,10.58.1,1.79-.81,3.64-1.72,5.4-1.3-3.43.48-7.39-2.95-10.83v8.2l-1.07.28-1.55-4.17c-3.64.35-4.06,1-3.55,5,.12,1-.47,2.07-.73,3.12a9.86,9.86,0,0,1-2-2.37c-1.33-3.4-3.42-3.87-6-1.2-.58.59-1.14,1.2-2.43,2.57-1-2.63-2.54-4.78-2.43-6.85s1.8-4.21,3-6.8c-5.26,1.18-5.3,7.64-10.67,9.08-.54-5.62,4.09-9.19,4.64-14.18-1.69,2.59-3.55,5.09-5,7.81a8.41,8.41,0,0,0,0,7.86c1.56,3.48,3.13,7.19-.54,10.65-.59.56-.28,2.2-.22,3.33.12,2.18.34,4.35.54,6.71a6,6,0,0,0-1.92,0,15.43,15.43,0,0,0-2,1.36c.57.61,1.09,1.69,1.72,1.76,2.68.29,3.17,2,3.25,4.2.2,5.28.41,10.56.69,15.83.08,1.41.43,2.81.74,4.74,1.54-5.67-.18-11.24,1.93-15.3-1-6.83-1.89-13-2.63-19.23-.1-.78.83-1.69,1.29-2.53.6.72,1.47,1.37,1.74,2.2.78,2.45,1.32,5,2.11,8.1a10.13,10.13,0,0,0,.41-1.33c.18-2.11.14-4.72,2.79-5,2.94-.3,3.64,2.43,4.23,4.67.52,2,.55,4.18,1.17,6.16a8.73,8.73,0,0,0,3,4.07,39.45,39.45,0,0,1-.35-5.62c.08-1.17,1-2.26,1.33-3.44.44-1.61.67-3.28,1.16-5.77,1,1.13,2.25,1.88,2.34,2.74a15.2,15.2,0,0,1-.65,4.68c-.2.9-.79,1.71-1,2.61-.59,2.36-1,4.77-1.65,7.1-1.31,4.48-3.12,8.83-4.12,13.37-1.32,6.06-2,12.26-3.12,18.37a57.38,57.38,0,0,1-2.14,6.75,3.92,3.92,0,0,0-.36,1.49c.83,7.33-1.66,14.14-3.2,21.1-1.67,7.57-3.08,15.22-5.2,22.66-1.1,3.87-2.73,8.19-5.52,10.81-2.64,2.47-3.26,5.7-5.26,8a23.77,23.77,0,0,0-4.72,7,.62.62,0,0,1-.17.27C188.72,583.88,186,586,183.31,588Zm63.74-237.7a6.48,6.48,0,0,0,.62,1.63c7.86,9.65,13.29,20.68,18.34,31.94a5.48,5.48,0,0,0,1.56,1.84c1.73,1.38,3.54,2.66,5.39,4l.68-1.22h.8q1,5.81,2,11.59c-.35-5.55,3.36-12-3.22-16.12-.15-.1-.22-.35-.3-.54-4.75-11.11-13.8-19.34-19.87-29.58C251.93,352,250.58,349.48,247.05,350.31ZM216,402.13l-.46-.87c-1.52.9-3.28,1.55-4.52,2.74-8,7.71-12.32,17.47-15.06,28-.54,2.09.2,3.95,2.21,3.95,2.11-6.38,3.38-12.78,6.31-18.29S212.08,407.27,216,402.13Zm17.12-63.44c.71.5,1.29,1.21,2,1.32,6.83,1.12,12.11,5,17.23,9.3a27.26,27.26,0,0,0,3.28,1.95C253.69,342.81,238.38,334.46,233.11,338.69Zm-20.8,9.08c-1.77,8.4-3.39,16.08-5,23.84C212.89,370.92,216.66,354.87,212.31,347.77ZM336.58,489.41c-.71,1.57-1.25,2.2-1.23,2.8.16,4,.34,8,.75,11.91.08.74,1.25,1.37,1.91,2.05.6-.78,1.74-1.57,1.7-2.32a83.59,83.59,0,0,0-1-10C338.47,492.59,337.56,491.42,336.58,489.41Zm-83.47-95.9.85-.37c1-6.29-2.92-14.73-7.69-15.4Zm35.32,15.12-.89-.07a4.87,4.87,0,0,0-.63,1.33c-.71,4.75-1.4,9.51-2,14.27-.06.46.45,1,.69,1.48.6-.32,1.55-.5,1.74-1A26.26,26.26,0,0,0,288.43,408.63ZM225,377.89l-.89-.57-8.37,14.19C220.65,390.21,225.67,381.83,225,377.89Zm92.21,69.56c1.38-5.7,2.32-11.41.21-17.16C315.88,436,314.77,441.71,317.17,447.45ZM186.74,374.69c4.45-2.94,8.37-6.34,10.25-11.47A21,21,0,0,0,186.74,374.69Zm105.57,8.14c-3.08,2.26-2.71,12.73.43,14.32A25.49,25.49,0,0,0,292.31,382.83Zm5.9,91.14c-1.54,5.61-.46,11.2,2.52,13C302.62,483.27,301.85,479.3,298.21,474ZM256,374.53c.59-4.66-5.2-12.21-9.22-12.44ZM317,411.35l-1.16.39q2.61,8.22,5.24,16.44l1.29-.42A45.5,45.5,0,0,0,317,411.35Zm-64.42-3.92,2-.53c-.73-3.47-1.4-6.95-2.24-10.39-.12-.5-1-.86-1.6-1.14-.1,0-.87.79-.8,1.11C250.8,400.14,251.72,403.78,252.62,407.43Zm43.7-14.61c.57,4.5,1.12,8.88,1.68,13.25C301,401.56,299.86,394.68,296.32,392.82Zm9,78.82c-1.15,3.46-.85,4.13,5.43,10-.17-2.08-.22-4.34-1.21-6.06S306.68,472.84,305.35,471.64Zm-108.64,47c2.36-3.59-1.29-4.48-2.81-6.27-.3-.35-1.1-.28-1.67-.41l-1.09,4.95Zm112.23,24.95c.58-4.88.57-8.89-1.44-13.14C305.54,534,306.12,540,308.94,543.56Zm-96.32-69.4-.84.14a35.76,35.76,0,0,0,.11,6.47c.22,1.15,1.57,2.08,2.41,3.12.33-1.27,1.16-2.65.89-3.77A37.47,37.47,0,0,0,212.62,474.16Zm5.1-76.71.75.71L226,390C222,389.55,219.44,392.28,217.72,397.45Zm62.43-24L285,384.67l1-.43C286.9,379.32,283.4,376.37,280.15,373.49Zm-18.77,39.9,1.08-.17c.72-3.73,1.15-7.43-.93-10.85l-1.34.15Q260.79,408,261.38,413.39ZM225,339.58c-2.24-2.06-4.73-1.41-7.13-.59a2.27,2.27,0,0,0-.47,2C218.5,342.16,223.61,341.16,225,339.58Zm83.42,85.85c3.58-1.89,4.56-7.41,2.22-10.19Zm25.86,45.8c2.94-2.05,3.33-4.21,2.55-6.72-.16-.51-.7-.9-1.07-1.35-.5.47-1.37.9-1.41,1.4C334.13,466.52,334.23,468.5,334.23,471.23Zm-53.91-60.42c3.81-3.37,2.43-7.58,1.74-11.7ZM303.85,414l1.36.52c.47-1.07,1.37-2.18,1.3-3.21-.11-1.39-1-2.72-1.51-4.08l-1.15.33ZM201.4,468.63l-1.67.83,3.75,6.63,1.47-.82C203.77,473.06,202.58,470.85,201.4,468.63Zm131-24.48c-3.09,3.11-2.8,5.53,0,7.2Zm8.42,31.15.64-.24a24.61,24.61,0,0,0-1.83-4.45c-.35-.55-1.67-.47-2.55-.67a7,7,0,0,0,.71,2.42A28.11,28.11,0,0,0,340.85,475.3Zm-19.58-14.63-1-.83c-2,.85-3.52,2.09-3.4,4.49l1,.74Zm-39.9,68.68-1.42-.14c-.35,1.6-.79,3.2-1,4.82,0,.38.66,1.16,1.07,1.2a1.62,1.62,0,0,0,1.28-1C281.46,532.64,281.37,531,281.37,529.35Zm-79.93-12.14c.89-1.5,1.72-2.31,1.75-3.15,0-.69-.92-1.4-1.43-2.11-.65.65-1.77,1.24-1.84,1.94S200.65,515.62,201.44,517.21ZM214.88,466l-1.62.37,2.05,7.39,1.28-.34Zm-17.94,17-1-.15-1,6.82,1.06.17C198.22,487.91,197.1,485.38,196.94,483ZM300.43,447.3l-.72-1.62-2.29-2.28c-.44.55-1.34,1.29-1.21,1.63a6.55,6.55,0,0,0,1.92,2.8C298.52,448.14,299.64,447.51,300.43,447.3Zm17.69,8.56c3.14-2,3.41-3.62,1.43-6C319,452,318.58,453.91,318.12,455.86ZM202.76,482.49c-2.57,2.05-2.46,4,0,6.49Z" transform="translate(-126.56 -219.25)"/><path class="cls-1" d="M225.64,257.29c1,6-3.15,7.67-7.26,9.3-2.54,1-5,2.38-7.65,2.87-1.38.26-3-1-4.59-1.64.93-1.13,1.67-2.55,2.84-3.32a60.35,60.35,0,0,1,5.65-2.77,24.26,24.26,0,0,0,2.81-2c-5.92-2.67-9.19-1.74-12.46,3.19-1.42,2.14-2.87,4.27-4.46,6.63l-2.46-2.63-.73.16c.34,1.39.37,3,1.09,4.12,1.81,2.88,4.13,5.45,5.87,8.37,1,1.63,1.22,3.7,1.75,5.58.41,1.44.75,2.89,1.12,4.34l1,0a12.62,12.62,0,0,1,.71-3.37c.59-1.13,1.59-2.79,2.52-2.86,2.29-.17,1.38,1.67,1.22,3,0,.32.29.69.38.88l9.8-6.41,1.72,2.64c2.12-3.91,3.92-7.23,5.76-10.64,2.16.67,2.16.67,3.31,6.1.52-2.43,1-4.89,1.59-7.3a69.48,69.48,0,0,1,2.52-8.59c.42-1,2-1.63,3-2.43a10.84,10.84,0,0,1,.84,3.36,31,31,0,0,1-1.13,4.88c3.38,1,3.38,1-.16,8.25l2.82.57q-1.31,2.64-2.58,5.26l5.59,1.18a15.62,15.62,0,0,1-8.91,6.29,5.06,5.06,0,0,0-4.33,4.22,9.79,9.79,0,0,1-1.12,3.25,2.6,2.6,0,0,1-2.28.9c-3.34-1.57-6.54-3.45-9.86-5.08s-7.18-1.89-10,.27c-4.42,3.4-9.42,3.15-14.36,3.88-3.35.5-6.65,1.38-10,2.09l-.07,1.35c1.87.74,3.73,1.51,5.61,2.21,3.58,1.34,5.13,3.73,4.47,7-.6,2.92-5.3,6.83-8,6.09-1.64-.46-2.94-2.1-4.58-3.36a14.49,14.49,0,0,1-1.9,3.48c-.82.86-2.18,1.21-3.26,1.76.5-1.69.8-3,1.31-4.31.88-2.19,1.9-4.21,4.81-4.32.82,0,1.6-1,2.4-1.46a17.81,17.81,0,0,1-1.77-1.7c-2.19-2.79-5-3-8.94-1.16,1.72-2.84,3.07-4.51,3.79-6.42,1.11-2.93-.12-4.43-3.13-3.71-4.62,1.11-9,2.84-12,7.71l-6.62-2.32.76-.66c-.39-1.51-.43-3.24-1.22-4.5-2.37-3.77-6.46-6.48-6.95-11.43,0-.32-.54-.6-.83-.91-3-3.18-2.91-4.53,1.43-7.2l-5.23-1.43c-.57-1.8.76-5.09-4.13-5a25.68,25.68,0,0,1,2.83-3.88c1.25-1.14,2.42-1.55,3.17.83,1,3.24,3.34,5.53,6.81,5.8,2,.16,4.08-.61,6.33-1-.15,1.94-.28,4.41-.56,6.87s.52,4.4,2.75,5.13c4.77,1.56,9.64,2.82,14.52,4a3.67,3.67,0,0,0,2.5-.95c3.3-2.5,5.18-1.92,6.27,2a15.44,15.44,0,0,0,1,2.21l.94,0c0-2-.38-4.08.08-6,1.06-4.36,2.49-8.64,3.85-12.93.81-2.55.48-4.17-2.56-4.86-1.55-.36-2.83-1.77-4.33-2.51-2.48-1.23-5-2.39-7.58-3.42-1.75-.71-4.07-.34-4.44-3.19-.05-.41-2.38-1.13-3.2-.74-2.45,1.17-4.63,2.9-7,4.25-1.35.78-3.36,1.74-4-.34-.6-1.92-.08-4.21,0-6.33a3.76,3.76,0,0,1,1.87,0,18.84,18.84,0,0,1,2.76,1.88l-.35-6.19,6.91-1.12c-.33-2.92,1.42-4.13,3.77-5.06a29,29,0,0,0,5.29-2.78c6-3.93,12.28-5.24,19.13-2.46a2.28,2.28,0,0,0,1.46,0c3.36-1.11,3.35-1.12,5.93,1.45a6.51,6.51,0,0,1,.78-2.09,3.58,3.58,0,0,1,2.13-1.39c.7,0,1.43.87,2.09,1.42,1.2,1,2.24,2.7,3.56,2.95,3.75.71,7.6.83,11.09,1.15.48-1,.68-1.21.64-1.36-1.4-5.78,1.92-9.14,6.23-11.85,2.71-1.7,5.59-3.11,8.4-4.66l1,1a31.14,31.14,0,0,1-2.59,3.78c-2.79,3-5.79,5.85-6.78,10.13-.18.77-1.59,1.2-2.28,1.92s-1.31,1.47-1.22,2.12a2.37,2.37,0,0,0,1.84,1.43c2,0,2.39,1.1,2.71,2.75.49,2.56,1.33,5,1.95,7.57a5.92,5.92,0,0,1,.28,2.8c-.41,1.44-.89,3.46-1.94,4-.88.41-2.78-.8-3.93-1.69a14.47,14.47,0,0,1-2.35-3.19Z" transform="translate(-126.56 -219.25)"/><path class="cls-1" d="M410.2,585.61c-2.57-2.9-5.38-5.62-7.63-8.74-3-4.09-1.34-7,3.71-7.31,11.78-.65,21.71-5.14,28.92-14.64,4.69-6.17,7.22-13.13,4.8-21-.57-1.87-1.94-3.48-2.69-5.3a76.22,76.22,0,0,1-3.5-9.65c-.25-1,.72-2.78,1.66-3.38.73-.46,2.31.28,3.45.68a4.21,4.21,0,0,1,1.42,1.23c2,2.14,4.08,4,7.4,2.63.59-.25,1.42.1,2.52.21-2.4,2.82-1.33,5.28-.05,8,3.48,7.31,4.4,14.84,1.52,22.65a80.58,80.58,0,0,0-3.4,11.09,10.65,10.65,0,0,1-6.7,8.2c-2.74,1.22-5.38,2.39-7.2,5.5-1.06,1.82-4.88,2-7.91,3.11-.8,2.93-3.36,4.35-7.4,2.35-3-1.47-5.29-4.2-8.25-6.66l-4.59.89,4.93,9.43Z" transform="translate(-126.56 -219.25)"/><path class="cls-1" d="M181.5,338.78l-4.24,11.67.62.38c1.12-2.08,2.2-4.18,3.37-6.23,1.48-2.62.77-6.74,5.17-7.45.46-.07.67-1.62,1-2.51,2.49,2,2,7.63-.65,9.83a23.39,23.39,0,0,0-8.81,15c-.42,2.79-2.11,5.46-3.52,8a39.7,39.7,0,0,1-4.58,6.8,43,43,0,0,1-6.67,6.41c-1.76,1.33-3.8.82-5.6-1.41,2.84-2.6,7.54-2.62,9.22-6.89,1.37-3.48,3.64-6.61,5.52-9.9l-1.39-1L160.35,375c-.47-4.67,2.65-7.45,4.72-10.71s4.39-6.44,6.29-10l-9.4,9-.91-.56c.19-1.68.38-3.37.56-5-3.5,3.93-.5,10.6-6.8,13.5.73-3.61.95-7.41,2.28-10.78,2.63-6.63,5.84-13,8.87-19.5,1.5-3.18,3-3.33,5.66-.42.92-2.89,1.8-5.63,2.61-8.18-2.76.67-5.47,1.51-8.25,1.91-.92.13-2-.86-3-1.34a16.41,16.41,0,0,1,2.95-1,11.17,11.17,0,0,1,2.88.36l-1.64-3.64c4.62-1.18,10.69.83,12.8-5.84l1.11.73q-2.37,10-4.73,20.09c1.53-1.7,3.07-3.39,4.6-5.08Z" transform="translate(-126.56 -219.25)"/><path class="cls-1" d="M157.88,248.43a19.86,19.86,0,0,1-3.2-1.87c-2.46-2.08-4.82-4.28-7.18-6.47a24,24,0,0,1-3.67-3.82c-.39-.56.2-1.81.36-2.75a40.23,40.23,0,0,0,.82-5.07c.15-3.53.69-4.07,4.11-3.59a27.7,27.7,0,0,1,15.2,7.07c3.11,2.83,6.39,5.47,9.61,8.2-4.77,4.87-10.75,3.47-13.55-2.44-1.41-3-4.07-5.48-6.59-7.74-.93-.84-3-.36-4.62-.48-.1,1.66-.89,3.73-.18,4.9,2.17,3.56,4.92,6.77,7.44,10.11l2.19,2.92Z" transform="translate(-126.56 -219.25)"/><path class="cls-1" d="M214.76,303.35,219,304c.37-4.13-6.15-1.66-5.59-6.4l18.67,8.63-.1.93c-1.89,0-3.78.14-5.65,0-2.05-.2-2.91.71-3.09,2.59a13,13,0,0,1-.22,1.88c-.87,3.38-2.3,4.08-5.17,2.08A61.37,61.37,0,0,1,212,308.4l.84-1.33,5.68,2.21Z" transform="translate(-126.56 -219.25)"/><path class="cls-1" d="M200.38,326.44c-2.17-.4-4.09-.37-5.62-1.14-1.18-.59-2.57-2.15-2.61-3.33a5.23,5.23,0,0,1,2.06-4c3.46-2.12,7.31-1.77,10.88-.1a4,4,0,0,1,2,3,6.32,6.32,0,0,1-2,4.22C203.8,326.06,201.79,326.08,200.38,326.44Z" transform="translate(-126.56 -219.25)"/><path class="cls-1" d="M207.89,302.82c.53,2.18.7,4.28,1.57,6s2.41,3,3.66,4.5l-.43,1c-2.38-.38-5.05-.2-7.07-1.26a16.38,16.38,0,0,1-8.74-11.4c-.16-.77.7-1.75,1.08-2.63.81.35,2.21.57,2.33,1.08,1.09,4.63,4,3.79,7.09,2.58A.62.62,0,0,1,207.89,302.82Z" transform="translate(-126.56 -219.25)"/><path class="cls-1" d="M177.15,527.25c-5.36-8.83-8.4-17-3.33-22.61C178.06,508.47,180.29,522.72,177.15,527.25Z" transform="translate(-126.56 -219.25)"/><path class="cls-1" d="M183.2,268.84c-6.24.85-11.49.31-16.47-1.86-2.3-1-1.87-3.44-.88-4.89.8-1.18,3.14-2.52,4.17-2.13a53.66,53.66,0,0,1,9.3,5C180.64,265.82,181.6,267.22,183.2,268.84Z" transform="translate(-126.56 -219.25)"/><path class="cls-1" d="M236.27,240.47l3.48-4.07-4.08-.46c.09-.37.08-.86.25-.93a11.67,11.67,0,0,0,6.56-6.48c.06-.13,2.48.27,2.57.68a78.74,78.74,0,0,1,1.47,10.13c.06.69-1.13,2-1.92,2.15C241.87,242,239.05,242.31,236.27,240.47Z" transform="translate(-126.56 -219.25)"/><path class="cls-1" d="M171.63,521.93a32.24,32.24,0,0,1,3.86,20,2.44,2.44,0,0,1-1.26,1.58c-.37.18-1.24-.18-1.6-.56C168.8,538.89,168.05,526.88,171.63,521.93Z" transform="translate(-126.56 -219.25)"/><path class="cls-1" d="M381.58,573.66c-.23-.71-.39-1.44-.68-2.11a39.85,39.85,0,0,1-3.32-19.32,7.22,7.22,0,0,1,1.15-2.33c.79.71,2.1,1.31,2.27,2.14.61,3,.86,6,1.18,9,.36,3.24.68,6.47.94,9.71a8.05,8.05,0,0,1-.3,2Z" transform="translate(-126.56 -219.25)"/><path class="cls-1" d="M151.29,257.07a13.83,13.83,0,0,1-9.08-7c-.24-.41,0-1.18.15-1.73.4-1.25.87-2.48,1.39-3.68.36-.83.85-1.59,1.28-2.38.84.64,1.7,1.26,2.49,2,.17.15.12.6.1.91-.15,3.53,1,6.32,4.22,8.16a3.49,3.49,0,0,1,1.28,2.58C153.14,256.33,151.75,256.8,151.29,257.07Z" transform="translate(-126.56 -219.25)"/><path class="cls-1" d="M219.3,271.54c.89.22,1.53.18,1.79.47,1.41,1.61.82,6.1-1,7.95a5.82,5.82,0,0,1-7.25.88c-2.07-1.42-3.1-4.9-1.59-7a5.74,5.74,0,0,1,4-2.11c1.71,0,2,1.89.81,3.24a13.83,13.83,0,0,0-1.51,2.79c.89.45,2.21,1.5,2.59,1.23a6.77,6.77,0,0,0,2.53-3.21C220.06,274.6,219.5,273.17,219.3,271.54Z" transform="translate(-126.56 -219.25)"/><path class="cls-1" d="M383.56,559.17c5.83,1.14,8.74,8.21,7.15,17.23-1.89-3.28-2.92-6.38-5-8.35C382.83,565.33,383.91,562.44,383.56,559.17Z" transform="translate(-126.56 -219.25)"/><path class="cls-1" d="M185.6,472.38c-4.63-.92-10.31-14.61-7.74-18.67C179.73,454.86,186,470,185.6,472.38Z" transform="translate(-126.56 -219.25)"/><path class="cls-1" d="M166.78,539.72c4.27,1.7,7,12.37,4.45,17.73C167.5,551.88,166.48,546.16,166.78,539.72Z" transform="translate(-126.56 -219.25)"/><path class="cls-1" d="M169,412.46c-3.08-4.7.65-17.18,6.15-21.51C174.38,398.82,170,404.76,169,412.46Z" transform="translate(-126.56 -219.25)"/><path class="cls-1" d="M182.35,486.32c-2.19-3.29-4.5-6-5.9-9.18-.65-1.48.44-3.73.74-5.71C181.69,472.83,184.63,481.53,182.35,486.32Z" transform="translate(-126.56 -219.25)"/><path class="cls-1" d="M173.16,419.39c-1-6.44-1.33-12.44.61-18.92C177.27,405.64,176.86,415.7,173.16,419.39Z" transform="translate(-126.56 -219.25)"/><path class="cls-1" d="M182.48,496.88c-5-1.42-3.64-7.79-8.6-8.94a.54.54,0,0,1,0-.39c.89-1.57,1.81-3.13,2.72-4.7,1.15,1.4,2.77,2.63,3.35,4.24A96.84,96.84,0,0,1,182.48,496.88Z" transform="translate(-126.56 -219.25)"/><path class="cls-1" d="M398.32,580c-1.93-3.51-4.22-6.89-5.59-10.61-.43-1.16,1.59-3.23,2.61-5.09,2.81,5.16,4.86,9.87,3.87,15.27Z" transform="translate(-126.56 -219.25)"/><path class="cls-1" d="M174.75,492.29c4.09,5.07,5.37,10.49,6.3,16.28C177.27,507.87,172.84,497,174.75,492.29Z" transform="translate(-126.56 -219.25)"/><path class="cls-1" d="M156.52,266.48c-.57.4-1.54,1.64-2.61,1.75a4.83,4.83,0,0,1-4.8-5.13c.18-1.24,1.38-3,2.43-3.29C154,259.19,156.48,262.33,156.52,266.48Z" transform="translate(-126.56 -219.25)"/><path class="cls-1" d="M223.59,456.76c-6.1-4.1-7.18-9.13-2.8-14.57C221.78,447.33,222.63,451.79,223.59,456.76Z" transform="translate(-126.56 -219.25)"/><path class="cls-1" d="M164.67,552c2.8,2.62,4.91,11,3.86,13.55a1.54,1.54,0,0,1-1.07.83,1.46,1.46,0,0,1-1.24-.64C164.82,561.5,163.8,557.19,164.67,552Z" transform="translate(-126.56 -219.25)"/><path class="cls-1" d="M170.08,277.5l3.4,4.45c-3.44.85-4.43-1.31-4.84-3.16a12.08,12.08,0,0,1,.6-5.48c.08-.28,2.12-.29,3.12,0,.56.17,1.36,1.52,1.18,1.84a8.5,8.5,0,0,1-2.23,2.11C171.05,277.47,170.59,277.41,170.08,277.5Z" transform="translate(-126.56 -219.25)"/><path class="cls-1" d="M153.41,328.66c2.17,1.2,3.71,1.74,4.81,2.76.78.71,1,2.07,1.43,3.14-1.24.24-2.73,1-3.65.6a9.26,9.26,0,0,1-3.48-3.36C152.18,331.28,153,330,153.41,328.66Z" transform="translate(-126.56 -219.25)"/><path class="cls-1" d="M261.23,442.35c-.44,2.59-1.36,3.78-3.47,3.8a2.15,2.15,0,0,1-2.21-3c.45-1.48,1.67-2.73,2.56-4.07Z" transform="translate(-126.56 -219.25)"/><path class="cls-1" d="M160.09,346.13c-.17,5.19-1.37,7.31-4.41,8C154.34,349,156,345.76,160.09,346.13Z" transform="translate(-126.56 -219.25)"/><path class="cls-1" d="M245.28,456.66a16.56,16.56,0,0,1,2-13A17.9,17.9,0,0,1,245.28,456.66Z" transform="translate(-126.56 -219.25)"/><path class="cls-1" d="M163.4,583l-4.15,4.37c-.85-.9-2.58-2.34-2.42-2.59a21.28,21.28,0,0,1,3.77-4.17A29.9,29.9,0,0,1,163.4,583Z" transform="translate(-126.56 -219.25)"/><path class="cls-1" d="M237.17,456.36c1.33-2.81,2.35-5,3.48-7.38,2.32,1.84,1.75,4.1,1.26,6.12a3.43,3.43,0,0,1-2.21,2.15C238.79,457.42,237.69,456.56,237.17,456.36Z" transform="translate(-126.56 -219.25)"/><path class="cls-1" d="M211.08,441.3c2.75,1.7,3.48,4.43,3.43,7.46,0,.54-.71,1.07-1.09,1.61-.53-.42-1.38-.75-1.53-1.28-.73-2.46-1.26-5-1.85-7.49Z" transform="translate(-126.56 -219.25)"/><path class="cls-1" d="M185.68,437.12c-1-2.49-2.07-5-2.94-7.51-.16-.48.46-1.23.72-1.85.67.34,1.78.54,1.94,1.05.8,2.53,1.36,5.14,2,7.72Z" transform="translate(-126.56 -219.25)"/><path class="cls-1" d="M242.33,324.17c-2.41-1.24-4.85-2.41-7.15-3.79a2.83,2.83,0,0,1,.52-2.3c1.24-.72,7.06,3.3,7.22,4.81C242.94,323.06,242.76,323.25,242.33,324.17Z" transform="translate(-126.56 -219.25)"/><path class="cls-1" d="M253,575a32.15,32.15,0,0,1-2.52,4.51c-.53.68-1.68.87-2.55,1.28-.33-1.12-1.08-2.3-.92-3.35C247.33,575.11,248.81,574.5,253,575Z" transform="translate(-126.56 -219.25)"/><path class="cls-1" d="M163.62,328.94c-2.58,1.06-4.74.78-6.26-1.36-1-1.33-.84-2.8,1.31-2.66C161,325.08,163.25,325.57,163.62,328.94Z" transform="translate(-126.56 -219.25)"/><path class="cls-1" d="M268.5,353.11l7.2,3.63-3.86,3.11-4.18-6.27Z" transform="translate(-126.56 -219.25)"/><path class="cls-1" d="M147.66,311.33c3.87-.79,6.06.63,6.87,4.29C151.82,316.2,148.91,314.46,147.66,311.33Z" transform="translate(-126.56 -219.25)"/><path class="cls-1" d="M148.9,586.13c-2-3-1.44-5.82-.26-8.86A6.17,6.17,0,0,1,148.9,586.13Z" transform="translate(-126.56 -219.25)"/><path class="cls-1" d="M270.35,441.45c2.18,1.87,2.69,3.92,1.85,6.11-.27.71-1.55,1-2.36,1.52a6.57,6.57,0,0,1-.61-2.3C269.42,445.12,269.9,443.5,270.35,441.45Z" transform="translate(-126.56 -219.25)"/><path class="cls-1" d="M181.53,356.63c-.35-3.59.93-5.48,5-5.81l-3.93,6.4Z" transform="translate(-126.56 -219.25)"/><path class="cls-1" d="M249.51,279.74c-1.19-1-2.17-1.36-2.31-1.95a21.57,21.57,0,0,1-.41-4.76c0-.2,1-.4,1.5-.61a39.2,39.2,0,0,1,1.4,4A14.92,14.92,0,0,1,249.51,279.74Z" transform="translate(-126.56 -219.25)"/><path class="cls-1" d="M295.15,456.62c3.32.74,4.82,4.28,3.17,6.31-.25.32-2,.07-2-.18C295.8,460.87,295.54,458.93,295.15,456.62Z" transform="translate(-126.56 -219.25)"/><path class="cls-1" d="M234.16,301.66c2.92-3,4.44-3.29,8.13-.93l-7.87,2.09Z" transform="translate(-126.56 -219.25)"/><path class="cls-1" d="M171.61,301.16a8,8,0,0,1-7.11,5.26l-.67-.92,7-5.22Z" transform="translate(-126.56 -219.25)"/><path class="cls-1" d="M290,458.06c4.41,2,5.6,4.8,3.56,8.77Z" transform="translate(-126.56 -219.25)"/><path class="cls-1" d="M227.29,329.31c-1.83.85-2.91,1.64-4,1.75-.59.06-1.31-1.06-2-1.65a15.8,15.8,0,0,1,3.2-2.46C224.83,326.79,225.84,328.06,227.29,329.31Z" transform="translate(-126.56 -219.25)"/><path class="cls-1" d="M168,322.86c-2.06,1.11-3.93,1.65-5.46-.21-.28-.34.45-2.18,1.1-2.48C165.85,319.15,167,320.59,168,322.86Z" transform="translate(-126.56 -219.25)"/><path class="cls-1" d="M246.48,329.57l-8.27-1.78C240.59,325.3,243.87,325.94,246.48,329.57Z" transform="translate(-126.56 -219.25)"/><path class="cls-1" d="M243.87,317.22a38.8,38.8,0,0,1-4.22-2.64c-.18-.14.6-1.5.93-2.29L245,315.5Z" transform="translate(-126.56 -219.25)"/><path class="cls-1" d="M252,448.28c.53.81,1.7,1.9,1.49,2.38a21.89,21.89,0,0,1-2.79,3.94l-1.17-.68q.72-2.7,1.45-5.4Z" transform="translate(-126.56 -219.25)"/><path class="cls-1" d="M244.46,254.57c-1.81-1.49-2.64-3-1-4.68.37-.38,2.27-.06,2.64.49C247.27,252.15,246.21,253.44,244.46,254.57Z" transform="translate(-126.56 -219.25)"/><path class="cls-1" d="M150.94,321.34c.5-.09,1-.36,1.27-.2,1.36.92,2.65,1.94,4,2.93-.54.35-1.11,1-1.61,1C152.47,324.85,150.83,324,150.94,321.34Z" transform="translate(-126.56 -219.25)"/><path class="cls-1" d="M156.05,307.61l6.1,1.39c-2.61,2.54-4.66,2.19-6.47-.35Z" transform="translate(-126.56 -219.25)"/><path class="cls-1" d="M223.73,279.47a49.76,49.76,0,0,1,1.19-5.31c.18-.52,1.2-.77,1.84-1.14.22.71.83,1.63.59,2.1a49.65,49.65,0,0,1-3,4.61Z" transform="translate(-126.56 -219.25)"/><path class="cls-1" d="M394.33,579.41l-6.25,2.71C388.8,578.33,391.22,577.29,394.33,579.41Z" transform="translate(-126.56 -219.25)"/><path class="cls-1" d="M227.85,328.92c1.38-3.12,3.05-3.06,4.74-2.06.45.26.42,1.35.6,2.06Z" transform="translate(-126.56 -219.25)"/><path class="cls-1" d="M244.86,443.07c-1.05.36-2.48,1.32-3.06.94-1.16-.73-1.85-2.2-2.73-3.36l.67-.51,4.59,2.06Z" transform="translate(-126.56 -219.25)"/><path class="cls-1" d="M152.53,302l7.75,3.07-.56,1.33-7.67-3.21Z" transform="translate(-126.56 -219.25)"/><path class="cls-1" d="M247.56,500.2c1.43.2,2.88.36,4.28.68a9.1,9.1,0,0,1-.07,1.84l-4.46-.45Z" transform="translate(-126.56 -219.25)"/><path class="cls-1" d="M247.16,512.1c0-.31-.13-.74,0-.91.94-1,1.93-2,2.9-2.95.29.49.93,1.23.79,1.42-.84,1.17-1.86,2.22-2.82,3.31Z" transform="translate(-126.56 -219.25)"/><path class="cls-1" d="M162.32,562.73c1.81,3.63,1.4,5.35-1.82,7.08C161.15,567.28,161.67,565.27,162.32,562.73Z" transform="translate(-126.56 -219.25)"/><path class="cls-1" d="M332.64,566.9c.68,1.16,1.4,2.29,2,3.5,0,.1-1,.7-1.47,1.07-.71-1.16-1.41-2.33-2.11-3.49Z" transform="translate(-126.56 -219.25)"/><path class="cls-1" d="M159.84,321.14l-4.66-1.51.49-1.7,4.7,1.33Z" transform="translate(-126.56 -219.25)"/><path class="cls-1" d="M324.38,562.48l2.67,4.85-1.57.84-2.55-4.91Z" transform="translate(-126.56 -219.25)"/><path class="cls-1" d="M176.29,323.26a5.2,5.2,0,0,1-1.6.4c-1.17-.18-2.31-.5-3.46-.77.2-.53.43-1.53.59-1.51a21.2,21.2,0,0,1,3.78.65C175.85,322.1,176,322.67,176.29,323.26Z" transform="translate(-126.56 -219.25)"/><path class="cls-1" d="M164,274.87c.25,1.4.57,2.81.68,4.23,0,.17-1.06.42-1.63.64l-1-4.4Z" transform="translate(-126.56 -219.25)"/><path class="cls-1" d="M262.22,536l-2.32,5.28C258.34,538.62,258.67,537.92,262.22,536Z" transform="translate(-126.56 -219.25)"/><path class="cls-1" d="M161.34,312.91l2.14,2.41c-.72.42-1.48,1.22-2.16,1.16a2.59,2.59,0,0,1-1.69-1.61C159.51,314.53,160.53,313.8,161.34,312.91Z" transform="translate(-126.56 -219.25)"/><path class="cls-1" d="M184.91,460.58c1.35-.62,2.07-1.26,2.63-1.14.74.16,1.35.9,2,1.39-.65.52-1.28,1.44-1.95,1.47S186.24,461.48,184.91,460.58Z" transform="translate(-126.56 -219.25)"/><path d="M247.05,350.31c3.53-.83,4.88,1.69,6,3.58,6.07,10.24,15.12,18.47,19.87,29.58.08.19.15.44.3.54,6.58,4.16,2.87,10.57,3.22,16.12q-1-5.79-2-11.59h-.8l-.68,1.22c-1.85-1.38-3.66-2.66-5.39-4a5.48,5.48,0,0,1-1.56-1.84c-5.05-11.26-10.48-22.29-18.34-31.94A6.48,6.48,0,0,1,247.05,350.31Z" transform="translate(-126.56 -219.25)"/><path d="M216,402.13c-3.91,5.14-8.53,9.9-11.52,15.53s-4.2,11.91-6.31,18.29c-2,0-2.75-1.86-2.21-3.95,2.74-10.53,7.08-20.29,15.06-28,1.24-1.19,3-1.84,4.52-2.74Z" transform="translate(-126.56 -219.25)"/><path d="M233.11,338.69c5.27-4.23,20.58,4.12,22.48,12.57a27.26,27.26,0,0,1-3.28-1.95c-5.12-4.28-10.4-8.18-17.23-9.3C234.4,339.9,233.82,339.19,233.11,338.69Z" transform="translate(-126.56 -219.25)"/><path d="M212.31,347.77c4.35,7.1.58,23.15-5,23.84C208.92,363.85,210.54,356.17,212.31,347.77Z" transform="translate(-126.56 -219.25)"/><path d="M336.58,489.41c1,2,1.89,3.18,2.1,4.47a83.59,83.59,0,0,1,1,10c0,.75-1.1,1.54-1.7,2.32-.66-.68-1.83-1.31-1.91-2.05-.41-3.95-.59-7.93-.75-11.91C335.33,491.61,335.87,491,336.58,489.41Z" transform="translate(-126.56 -219.25)"/><path d="M253.11,393.51l-6.84-15.77c4.77.67,8.68,9.11,7.69,15.4Z" transform="translate(-126.56 -219.25)"/><path d="M288.43,408.63a26.26,26.26,0,0,1-1.1,16c-.19.49-1.14.67-1.74,1-.24-.49-.75-1-.69-1.48.61-4.76,1.3-9.52,2-14.27a4.87,4.87,0,0,1,.63-1.33Z" transform="translate(-126.56 -219.25)"/><path d="M225,377.89c.71,3.94-4.31,12.32-9.26,13.62l8.37-14.19Z" transform="translate(-126.56 -219.25)"/><path d="M317.17,447.45c-2.4-5.74-1.29-11.45.21-17.16C319.49,436,318.55,441.75,317.17,447.45Z" transform="translate(-126.56 -219.25)"/><path d="M186.74,374.69A21,21,0,0,1,197,363.22C195.11,368.35,191.19,371.75,186.74,374.69Z" transform="translate(-126.56 -219.25)"/><path d="M292.31,382.83a25.49,25.49,0,0,1,.43,14.32C289.6,395.56,289.23,385.09,292.31,382.83Z" transform="translate(-126.56 -219.25)"/><path d="M298.21,474c3.64,5.33,4.41,9.3,2.52,13C297.75,485.17,296.67,479.58,298.21,474Z" transform="translate(-126.56 -219.25)"/><path d="M256,374.53l-9.22-12.44C250.78,362.32,256.57,369.87,256,374.53Z" transform="translate(-126.56 -219.25)"/><path d="M317,411.35a45.5,45.5,0,0,1,5.37,16.41l-1.29.42q-2.62-8.22-5.24-16.44Z" transform="translate(-126.56 -219.25)"/><path d="M252.62,407.43c-.9-3.65-1.82-7.29-2.63-10.95-.07-.32.7-1.15.8-1.11.6.28,1.48.64,1.6,1.14.84,3.44,1.51,6.92,2.24,10.39Z" transform="translate(-126.56 -219.25)"/><path d="M296.32,392.82c3.54,1.86,4.71,8.74,1.68,13.25C297.44,401.7,296.89,397.32,296.32,392.82Z" transform="translate(-126.56 -219.25)"/><path d="M305.35,471.64c1.33,1.2,3.26,2.31,4.22,4s1,4,1.21,6.06C304.5,475.77,304.2,475.1,305.35,471.64Z" transform="translate(-126.56 -219.25)"/><path d="M196.71,518.61l-5.57-1.73,1.09-4.95c.57.13,1.37.06,1.67.41C195.42,514.13,199.07,515,196.71,518.61Z" transform="translate(-126.56 -219.25)"/><path d="M308.94,543.56c-2.82-3.54-3.4-9.58-1.44-13.14C309.51,534.67,309.52,538.68,308.94,543.56Z" transform="translate(-126.56 -219.25)"/><path d="M212.62,474.16a37.47,37.47,0,0,1,2.57,6c.27,1.12-.56,2.5-.89,3.77-.84-1-2.19-2-2.41-3.12a35.76,35.76,0,0,1-.11-6.47Z" transform="translate(-126.56 -219.25)"/><path d="M217.72,397.45c1.72-5.17,4.29-7.9,8.24-7.42l-7.49,8.13Z" transform="translate(-126.56 -219.25)"/><path d="M280.15,373.49c3.25,2.88,6.75,5.83,5.79,10.75l-1,.43Z" transform="translate(-126.56 -219.25)"/><path d="M261.38,413.39q-.58-5.43-1.19-10.87l1.34-.15c2.08,3.42,1.65,7.12.93,10.85Z" transform="translate(-126.56 -219.25)"/><path d="M225,339.58c-1.34,1.58-6.45,2.58-7.6,1.44a2.27,2.27,0,0,1,.47-2C220.22,338.17,222.71,337.52,225,339.58Z" transform="translate(-126.56 -219.25)"/><path d="M308.37,425.43l2.22-10.19C312.93,418,312,423.54,308.37,425.43Z" transform="translate(-126.56 -219.25)"/><path d="M334.23,471.23c0-2.73-.1-4.71.07-6.67,0-.5.91-.93,1.41-1.4.37.45.91.84,1.07,1.35C337.56,467,337.17,469.18,334.23,471.23Z" transform="translate(-126.56 -219.25)"/><path d="M280.32,410.81l1.74-11.7C282.75,403.23,284.13,407.44,280.32,410.81Z" transform="translate(-126.56 -219.25)"/><path d="M303.85,414v-6.44l1.15-.33c.54,1.36,1.4,2.69,1.51,4.08.07,1-.83,2.14-1.3,3.21Z" transform="translate(-126.56 -219.25)"/><path d="M201.4,468.63c1.18,2.22,2.37,4.43,3.55,6.64l-1.47.82-3.75-6.63Z" transform="translate(-126.56 -219.25)"/><path d="M332.43,444.15v7.2C329.63,449.68,329.34,447.26,332.43,444.15Z" transform="translate(-126.56 -219.25)"/><path d="M340.85,475.3a28.11,28.11,0,0,1-3-2.94,7,7,0,0,1-.71-2.42c.88.2,2.2.12,2.55.67a24.61,24.61,0,0,1,1.83,4.45Z" transform="translate(-126.56 -219.25)"/><path d="M321.27,460.67l-3.48,4.4-1-.74c-.12-2.4,1.36-3.64,3.4-4.49Z" transform="translate(-126.56 -219.25)"/><path d="M281.37,529.35c0,1.64.09,3.29-.06,4.91a1.62,1.62,0,0,1-1.28,1c-.41,0-1.12-.82-1.07-1.2.2-1.62.64-3.22,1-4.82Z" transform="translate(-126.56 -219.25)"/><path d="M201.44,517.21c-.79-1.59-1.61-2.51-1.52-3.32s1.19-1.29,1.84-1.94c.51.71,1.45,1.42,1.43,2.11C203.16,514.9,202.33,515.71,201.44,517.21Z" transform="translate(-126.56 -219.25)"/><path d="M214.88,466l1.71,7.42-1.28.34-2.05-7.39Z" transform="translate(-126.56 -219.25)"/><path d="M196.94,483c.16,2.36,1.28,4.89-.93,6.84l-1.06-.17,1-6.82Z" transform="translate(-126.56 -219.25)"/><path d="M300.43,447.3c-.79.21-1.91.84-2.3.53a6.55,6.55,0,0,1-1.92-2.8c-.13-.34.77-1.08,1.21-1.63l2.29,2.28Z" transform="translate(-126.56 -219.25)"/><path d="M318.12,455.86c.46-1.95.92-3.9,1.43-6C321.53,452.24,321.26,453.86,318.12,455.86Z" transform="translate(-126.56 -219.25)"/><path d="M202.76,482.49V489C200.3,486.51,200.19,484.54,202.76,482.49Z" transform="translate(-126.56 -219.25)"/></svg>